<?xml version="1.0" encoding="utf-8"?>
<!-- Generator: Adobe Illustrator 23.0.3, SVG Export Plug-In . SVG Version: 6.00 Build 0)  -->
<svg version="1.1" id="Layer_1" xmlns="http://www.w3.org/2000/svg" xmlns:xlink="http://www.w3.org/1999/xlink" x="0px" y="0px"
	 viewBox="0 0 84.7 89" style="enable-background:new 0 0 84.7 89;" xml:space="preserve">
<style type="text/css">
	.st0{fill:#FB8C6B;}
	.st1{fill:#EE6055;}
	.st2{fill:#F7C39F;}
	.st3{fill:#6EC390;}
	.st4{fill:#6FC390;}
	.st5{fill:#70C491;}
	.st6{fill:#ED4D45;}
	.st7{fill:#60D394;}
	.st8{fill:#F9BEB9;}
	.st9{fill:#FFC9C1;}
</style>
<g>
	<g>
		<path class="st0" d="M55,29.25c8.88-0.57,11.62,7.44,11.9,8.16c0.22,0.56,0.73,1.76,1.31,2.73c0.79,0.79,1.8,1.55,2.28,1.89
			c0.61,0.43,7.55,4.83,5.28,13.88c-2.27,9.05-10.19,11.93-15.47,12.46c-1.74,0.17-17.89,2.82-22.51-1.94
			c-3.44-5.44,2.08-21.86,2.58-23.62C41.9,37.45,46.12,29.83,55,29.25z"/>
		<path class="st1" d="M43.36,69.26c-2.7-0.46-4.67-1.32-5.85-2.53l-0.06-0.07c-2.17-3.43-1.4-11.26,2.31-23.28
			c0.1-0.33,0.18-0.57,0.22-0.72c0.87-3.08,4.54-13.18,15-13.86c1.06-0.07,2.09-0.02,3.06,0.15c5.92,1.02,8.43,6.08,9.23,8.21
			l0.03,0.08c0.1,0.25,0.61,1.53,1.25,2.61c0.87,0.87,1.97,1.65,2.19,1.8l0.07,0.04c1.8,1.22,7.51,5.88,5.39,14.33
			C73.53,66.68,63.39,68.5,60.35,68.8c-0.16,0.02-0.43,0.05-0.8,0.1C56.98,69.24,49.15,70.26,43.36,69.26z M38.14,66.12
			c1.06,1.06,2.86,1.82,5.36,2.25c5.68,0.97,13.41-0.03,15.95-0.37c0.39-0.05,0.67-0.09,0.83-0.1c2.9-0.29,12.56-2.02,15.09-12.12
			c1.91-7.65-2.88-11.87-5.03-13.33l-0.07-0.05c-0.23-0.16-1.41-1-2.34-1.94l-0.07-0.08c-0.69-1.15-1.24-2.53-1.35-2.8l-0.03-0.09
			c-0.75-1.99-3.09-6.71-8.57-7.65c-0.91-0.16-1.87-0.2-2.87-0.14c-9.91,0.64-13.4,10.28-14.23,13.22c-0.04,0.15-0.12,0.4-0.22,0.74
			C36.1,58.2,36.77,63.9,38.14,66.12z"/>
	</g>
	<path class="st2" d="M69.88,47.93c0.04-0.16,0.08-0.28,0.11-0.37c0.33-0.29,0.64-0.57,0.88-0.86c1.12-1.32,1.32-3.16-0.54-4.25
		c-0.4-0.23-1.5-1.23-2.12-2.31c0,0-1.19-2.09-1.31-2.73c-0.13-0.68-1.26-1.4-2.71-1.04c0,0-0.01,0-0.01,0c-0.01,0-0.02,0-0.03,0.01
		c-0.02,0-0.04,0.01-0.06,0.02c-0.23,0.06-0.35,0.11-0.48,0.17c-0.03,0.01-0.05,0.02-0.07,0.03c-0.01,0-0.01,0-0.02,0.01
		c-0.14,0.05-0.26,0.14-0.75,0.13c-1.99-0.03-4.75-1.13-7.55-2.01c-0.54-0.17,1.45,0.75,3.68,1.9c0.83,0.43,1.68,1.02,2.32,1.69
		c-0.47,0.42-0.96,0.87-1.43,1.33c-1.4,0.16-4.02,0-6.84-0.71c-0.49-0.12,1.31,0.55,3.32,1.4c0.51,0.21,1.21,0.54,1.86,0.91
		c-0.1,0.1-0.2,0.2-0.3,0.29c-0.21,0.2-0.48,0.48-0.81,0.82c-0.09,0.06-0.17,0.12-0.24,0.17c-0.49,0.35-3.02,0.66-5.9-0.02
		c-0.37-0.09,1,0.4,2.53,1.01c0.47,0.19,1.18,0.5,1.74,0.84c-0.45,0.49-0.94,1.03-1.45,1.6c-0.78,0.29-2.25,0.51-4.5-0.02
		c-0.37-0.09,0.85,0.45,2.53,1.01c0.31,0.1,0.56,0.24,0.74,0.37c-0.2,0.23-0.41,0.46-0.61,0.69c-0.17,0.13-0.36,0.27-0.52,0.39
		c-0.49,0.35-1.68,1.44-4.57,0.76c-0.37-0.09,0.85,0.45,2.53,1.01c0.27,0.09,0.37,0.2,0.39,0.32c-0.53,0.6-1.05,1.22-1.58,1.83
		c-0.79,0.53-1.99,1.01-3.7,0.61c-0.36-0.08,0.77,0.42,2.37,0.96c-0.78,0.92-1.54,1.83-2.27,2.71c-0.75,0.27-1.65,0.39-2.68,0.15
		c-0.33-0.08,0.56,0.32,1.9,0.79c-2.84,3.5-4.92,6.32-4.78,6.91c0.11,0.43,0.35,0.68,0.59,0.8c0.28,0.14,2.91-1.17,6.44-3.09
		c0.1,1.49,0.25,2.49,0.26,2.14c0.03-1.14,0.38-2.03,0.83-2.74c0.97-0.53,1.99-1.1,3.03-1.68c0.1,1.81,0.28,3.14,0.29,2.75
		c0.06-2.18,1.08-3.32,1.84-3.95c0.41-0.23,0.83-0.47,1.24-0.71c0.02,0.01,0.02,0.02,0.04,0.03c0,0,0.59-0.55,0.63,0.32
		c0.1,1.86,0.29,3.24,0.3,2.84c0.09-3.11,1.39-4.06,1.84-4.47c0.36-0.34,0.95-0.84,0.95-0.84c0-0.02,0-0.03,0-0.05
		c0.09-0.05,0.17-0.1,0.26-0.15c0.09,0.24,0.19,0.58,0.21,1.01c0.1,1.86,0.29,3.24,0.3,2.84c0.09-2.93,0.91-4.44,1.37-4.95
		c0.52-0.31,1.02-0.61,1.51-0.9c0.2,0.7,0.33,1.59,0.39,2.17c0.18,1.72,0.29,3.24,0.3,2.84c0.09-3.11,1.01-5.61,1.45-6.03
		c0.2-0.18,0.55-0.52,0.84-0.79c0.22-0.14,0.44-0.27,0.64-0.4c0.19,0.79,0.33,1.66,0.41,2.27c0.28,2.26,0.46,4.26,0.46,3.73
		c0.05-3.18,0.59-5.97,1.11-7.31c0.46-0.34,0.97-0.69,1.48-1.04c0.48,0.84,0.82,1.88,1.01,2.85c0.5,2.56,0.85,4.82,0.83,4.23
		C69.73,53.06,69.41,49.97,69.88,47.93z"/>
	<g>
		<path class="st0" d="M67.29,41.39c-0.5-0.74-2.36-2.15-3.99-1.29c-1.24,0.65-4.16,3.51-6.04,5.71
			c-2.24,2.64-16.46,17.56-16.46,17.56l0,0c0,0,17.53-10.42,20.29-12.23c2.33-1.53,6.88-4.37,7.35-6.08
			C68.87,43.51,67.78,42.13,67.29,41.39z"/>
	</g>
	<g>
		<g>
			<path class="st3" d="M68.7,37.54c0,0,2.04-4.85,0.93-8.05c-1.98-5.68-3.89-6.69-3.89-6.69s-2.21,4.61-0.29,8.92
				C67.19,35.62,68.7,37.54,68.7,37.54z"/>
		</g>
		<g>
			<path class="st4" d="M71.59,41.22c0,0,4.96-0.96,7.65,0.93c4.78,3.35,5.27,5.54,5.27,5.54s-4.77,1.19-8.3-1.78
				C73.01,43.22,71.59,41.22,71.59,41.22z"/>
		</g>
		<g>
			<g>
				<path class="st5" d="M80.83,49.57c-2.98-0.53-4.05-2.03-6.11-4.2c-2.1-2.22-3.32-3.86-3.63-4.64c-0.08-0.43-0.09-0.84,0.02-1.18
					c0.32-0.94,0.79-1.49,1.03-1.72c0.09-0.07,1.47-1.82,4.32,0.32l0.68-0.86c-3.5-2.63-5.85-0.14-5.88-0.11l0,0
					c-0.24,0.19-0.46,0.38-0.64,0.52c-0.43,0.32-1.41,0.43-1.95,0.11c-0.54-0.33-0.79-0.84-1.09-1.12c-0.85-0.91-1.7-2.27-2.41-3.81
					c-1.28-2.76-2.59-4.41-2.21-7.57c0.08-0.7,0.23-1.26,0.4-1.73c-1.07,1.69-1.81,4.51,0.22,8.78c1.27,2.67,2.4,4.28,3.43,5.43
					c0.01,0.03-0.01-0.03,0,0c0.35,1.06,1.06,2.25,1.53,2.88c0.91,1.21,2.03,2.1,2.71,2.52c0.78,1.16,2.06,2.42,3.46,3.82
					c3.3,3.28,5.88,3.45,7.72,2.85C81.97,49.89,81.49,49.69,80.83,49.57z"/>
			</g>
			<g>
				<path class="st5" d="M84.83,48.41c0,0-0.88,0.95-2.4,1.44C84.38,49.67,84.83,48.41,84.83,48.41z"/>
			</g>
			<g>
				<path class="st5" d="M65.37,21.58c0,0-1.28,0.09-2,2C64.26,22.19,65.37,21.58,65.37,21.58z"/>
			</g>
		</g>
	</g>
</g>
<g>
	<path class="st1" d="M36.12,22.56c-9.85-1.85-13.86,7.03-14.25,7.81c-0.31,0.62-1.02,1.93-1.78,2.97c-0.97,0.81-2.2,1.55-2.77,1.87
		c-0.73,0.41-9,4.56-7.52,15.29c1.47,10.74,10,15.11,15.83,16.42c1.92,0.43,19.66,5.63,25.38,0.77c4.48-5.81,0.23-25.47-0.12-27.57
		C49.81,33.76,45.98,24.41,36.12,22.56z"/>
	<path class="st6" d="M12.3,40c0,0-4.87,4.76-1.28,15.03c0.81,2.33,2.99,5.57,5.8,7.79c1.61,1.27,4.41,2.84,7.39,3.85
		c5.17,1.74,11.22,2.58,14.86,2.89C48.68,70.37,51,67.69,51,67.69s-14.89-0.51-26.11-6.48C17.06,57.03,11.37,49.75,12.3,40z"/>
	<g>
		<path class="st7" d="M16.55,33.83c0,0-5.35-2.02-8.66-0.35c-5.86,2.95-6.76,5.37-6.76,5.37s5.11,2.25,9.52-0.5
			C14.65,35.85,16.55,33.83,16.55,33.83z"/>
		<path class="st7" d="M20.2,29.96c0,0-1.48-5.94,0.28-9.4c3.12-6.14,5.4-6.95,5.4-6.95s1.71,5.69-1.12,10.27
			C22.19,28.04,20.2,29.96,20.2,29.96z"/>
	</g>
	<g>
		<g>
			<path class="st7" d="M28.43,17.99c-0.28,3.68-1.78,5.47-3.9,8.19c-2.16,2.77-4,3.98-4.81,4.43c-0.45,0.14-0.88,0.19-1.26,0.09
				c-1.04-0.29-1.66-0.82-1.93-1.09c-0.08-0.1-2.07-1.62-0.06-5.28l-0.97-0.75c-2.47,4.51,0.39,7.13,0.43,7.16l0,0
				c0.22,0.27,0.45,0.52,0.61,0.73c0.38,0.5,0.59,1.68,0.3,2.36c-0.3,0.69-0.68,1.3-0.96,1.69c-0.9,1.12-2.18,2.4-3.85,3.28
				c-2.95,1.56-4.57,3.33-7.97,3.16c-0.75-0.04-1.37-0.16-1.87-0.32c1.89,1.15,4.97,1.77,9.32-1.11c2.72-1.8,4.65-3.7,5.77-5.06
				c0.04-0.01,0.07-0.03,0.11-0.04c1.09-0.53,2.05-1.38,2.66-2.01c1.2-1.23,1.88-2.39,2.27-3.25c1.16-1.06,2.51-2.5,3.86-4.34
				c3.18-4.32,3-7.71,2.19-9.9C28.46,16.5,28.5,17.18,28.43,17.99z"/>
		</g>
		<g>
			<path class="st7" d="M26.62,13.16c0,0,1.09,0.98,1.76,2.78C28.01,13.58,26.62,13.16,26.62,13.16z"/>
		</g>
		<g>
			<path class="st7" d="M-0.13,39.41c0,0,0.21,1.55,2.32,2.24C0.63,40.71-0.13,39.41-0.13,39.41z"/>
		</g>
	</g>
	<g>
		<path class="st8" d="M11.99,48.32c-0.41-0.59,0.3-1.22,0.77-0.79c0.42,0.38,0.66,1.42,0.57,1.52
			C13.19,49.18,12.17,48.59,11.99,48.32z"/>
		<path class="st9" d="M15.15,45.12c-0.41-0.59,0.3-1.22,0.77-0.79c0.42,0.38,0.66,1.42,0.56,1.52
			C16.36,45.97,15.33,45.39,15.15,45.12z"/>
		<path class="st9" d="M18.31,41.92c-0.41-0.59,0.3-1.22,0.77-0.79c0.42,0.38,0.66,1.42,0.57,1.52
			C19.52,42.77,18.5,42.18,18.31,41.92z"/>
		<path class="st9" d="M21.48,38.71c-0.41-0.59,0.3-1.22,0.77-0.79c0.42,0.38,0.66,1.42,0.57,1.52
			C22.68,39.57,21.66,38.98,21.48,38.71z"/>
		<path class="st9" d="M24.64,35.51c-0.41-0.59,0.3-1.22,0.77-0.79c0.42,0.38,0.66,1.42,0.57,1.52
			C25.85,36.36,24.83,35.78,24.64,35.51z"/>
		<path class="st9" d="M27.81,32.31c-0.41-0.59,0.3-1.22,0.77-0.79c0.42,0.38,0.66,1.42,0.56,1.52
			C29.01,33.16,27.99,32.57,27.81,32.31z"/>
	</g>
	<g>
		<path class="st8" d="M26.87,65.67c-0.41-0.59,0.3-1.22,0.77-0.79c0.42,0.38,0.66,1.42,0.57,1.52
			C28.08,66.52,27.06,65.94,26.87,65.67z"/>
		<path class="st9" d="M30.04,62.47c-0.41-0.59,0.3-1.22,0.77-0.79c0.42,0.38,0.66,1.42,0.57,1.52
			C31.24,63.32,30.22,62.73,30.04,62.47z"/>
		<path class="st9" d="M33.2,59.26c-0.41-0.59,0.3-1.22,0.77-0.79c0.42,0.38,0.66,1.42,0.56,1.52
			C34.41,60.12,33.39,59.53,33.2,59.26z"/>
		<path class="st9" d="M36.37,56.06c-0.41-0.59,0.29-1.22,0.77-0.79c0.42,0.38,0.66,1.42,0.57,1.52
			C37.57,56.91,36.55,56.33,36.37,56.06z"/>
		<path class="st9" d="M39.53,52.86c-0.41-0.59,0.3-1.22,0.77-0.79c0.42,0.38,0.66,1.42,0.56,1.52
			C40.74,53.71,39.71,53.12,39.53,52.86z"/>
		<path class="st9" d="M42.7,49.65c-0.41-0.59,0.3-1.22,0.77-0.79c0.42,0.38,0.66,1.42,0.56,1.52C43.9,50.51,42.88,49.92,42.7,49.65
			z"/>
	</g>
	<g>
		<path class="st8" d="M32.36,67.57c-0.41-0.59,0.3-1.22,0.77-0.79c0.42,0.38,0.66,1.42,0.57,1.52
			C33.56,68.43,32.54,67.84,32.36,67.57z"/>
		<path class="st9" d="M35.52,64.37c-0.41-0.59,0.3-1.22,0.77-0.79c0.42,0.38,0.66,1.42,0.56,1.52
			C36.73,65.22,35.71,64.63,35.52,64.37z"/>
		<path class="st9" d="M38.69,61.16c-0.41-0.59,0.3-1.22,0.77-0.79c0.42,0.38,0.66,1.42,0.57,1.52
			C39.89,62.02,38.87,61.43,38.69,61.16z"/>
		<path class="st9" d="M41.85,57.96c-0.41-0.59,0.3-1.22,0.77-0.79c0.42,0.38,0.66,1.42,0.56,1.52
			C43.06,58.82,42.03,58.23,41.85,57.96z"/>
		<path class="st9" d="M45.02,54.76c-0.41-0.59,0.3-1.22,0.77-0.79c0.42,0.38,0.66,1.42,0.56,1.52
			C46.22,55.61,45.2,55.02,45.02,54.76z"/>
		<path class="st9" d="M48.18,51.55c-0.41-0.59,0.3-1.22,0.77-0.79c0.42,0.38,0.66,1.42,0.57,1.52
			C49.39,52.41,48.36,51.82,48.18,51.55z"/>
	</g>
	<path class="st8" d="M38.29,68.16c-0.41-0.59,0.3-1.22,0.77-0.79c0.42,0.38,0.66,1.42,0.56,1.52
		C39.49,69.02,38.47,68.43,38.29,68.16z"/>
	<path class="st9" d="M41.45,64.96c-0.41-0.59,0.3-1.22,0.77-0.79c0.42,0.38,0.66,1.42,0.57,1.52
		C42.66,65.82,41.64,65.23,41.45,64.96z"/>
	<path class="st9" d="M44.62,61.76c-0.41-0.59,0.29-1.22,0.77-0.79c0.42,0.38,0.66,1.42,0.56,1.52
		C45.82,62.61,44.8,62.02,44.62,61.76z"/>
	<path class="st8" d="M44.39,68.07c-0.41-0.59,0.29-1.22,0.77-0.79c0.42,0.38,0.66,1.43,0.57,1.52
		C45.6,68.93,44.58,68.34,44.39,68.07z"/>
	<path class="st9" d="M47.56,64.87c-0.41-0.59,0.3-1.22,0.77-0.79c0.42,0.38,0.66,1.42,0.56,1.52
		C48.76,65.72,47.74,65.14,47.56,64.87z"/>
	<path class="st9" d="M50.72,61.67c-0.41-0.59,0.3-1.22,0.77-0.79c0.42,0.38,0.66,1.42,0.56,1.52
		C51.93,62.52,50.9,61.93,50.72,61.67z"/>
	<path class="st9" d="M47.78,58.55c-0.41-0.59,0.3-1.22,0.77-0.79c0.42,0.38,0.66,1.43,0.56,1.52
		C48.99,59.41,47.97,58.82,47.78,58.55z"/>
	<path class="st9" d="M50.95,55.35c-0.41-0.59,0.3-1.22,0.77-0.79c0.42,0.38,0.66,1.42,0.57,1.52
		C52.15,56.21,51.13,55.62,50.95,55.35z"/>
	<path class="st9" d="M30.94,29.13c-0.41-0.6,0.3-1.23,0.78-0.8c0.42,0.38,0.67,1.43,0.57,1.53C32.16,29.99,31.13,29.4,30.94,29.13z
		"/>
	<path class="st9" d="M34.1,25.94c-0.41-0.59,0.3-1.23,0.78-0.8c0.42,0.38,0.66,1.43,0.57,1.53C35.31,26.8,34.28,26.2,34.1,25.94z"
		/>
	<path class="st9" d="M45.63,46.68c-0.41-0.59,0.3-1.23,0.78-0.79c0.42,0.38,0.67,1.43,0.57,1.53
		C46.84,47.54,45.81,46.95,45.63,46.68z"/>
	<path class="st9" d="M48.78,43.49c-0.41-0.6,0.3-1.23,0.78-0.79c0.42,0.38,0.67,1.43,0.57,1.53
		C49.99,44.35,48.96,43.76,48.78,43.49z"/>
	<path class="st9" d="M50.85,48.53c-0.41-0.6,0.3-1.23,0.78-0.8c0.42,0.38,0.67,1.43,0.57,1.53C52.06,49.39,51.04,48.8,50.85,48.53z
		"/>
	<g>
		<path class="st8" d="M13.64,55.58c-0.41-0.6,0.3-1.24,0.78-0.8c0.42,0.38,0.67,1.44,0.57,1.53
			C14.86,56.44,13.83,55.85,13.64,55.58z"/>
		<path class="st9" d="M17.26,51.91c-0.41-0.6,0.3-1.24,0.78-0.8c0.42,0.38,0.67,1.44,0.57,1.54
			C18.48,52.77,17.45,52.18,17.26,51.91z"/>
		<path class="st9" d="M20.7,48.43c-0.41-0.6,0.3-1.24,0.78-0.8c0.42,0.38,0.67,1.44,0.57,1.53C21.92,49.29,20.88,48.7,20.7,48.43z"
			/>
		<path class="st9" d="M23.77,45.32c-0.41-0.6,0.3-1.24,0.78-0.8c0.42,0.38,0.67,1.44,0.57,1.54
			C24.99,46.18,23.96,45.59,23.77,45.32z"/>
		<path class="st9" d="M26.91,42.14c-0.41-0.6,0.3-1.24,0.78-0.8c0.42,0.38,0.67,1.44,0.57,1.54C28.13,43,27.1,42.41,26.91,42.14z"
			/>
		<path class="st9" d="M30.04,38.97c-0.41-0.6,0.3-1.23,0.78-0.8c0.42,0.38,0.67,1.44,0.57,1.54
			C31.26,39.83,30.23,39.24,30.04,38.97z"/>
		<path class="st9" d="M33.48,35.49c-0.41-0.6,0.3-1.24,0.78-0.8c0.42,0.38,0.67,1.44,0.57,1.54C34.7,36.35,33.67,35.76,33.48,35.49
			z"/>
		<path class="st9" d="M36.88,32.04c-0.41-0.6,0.3-1.24,0.78-0.8c0.42,0.38,0.67,1.44,0.57,1.54C38.1,32.91,37.07,32.31,36.88,32.04
			z"/>
		<path class="st9" d="M40.58,28.31c-0.41-0.6,0.3-1.23,0.78-0.8c0.42,0.38,0.67,1.43,0.57,1.53
			C41.79,29.17,40.76,28.58,40.58,28.31z"/>
	</g>
	<g>
		<path class="st8" d="M20.68,63.95c-0.41-0.6,0.3-1.24,0.78-0.8c0.42,0.38,0.67,1.44,0.57,1.54C21.9,64.81,20.87,64.22,20.68,63.95
			z"/>
		<path class="st9" d="M24.31,60.28c-0.41-0.6,0.3-1.24,0.78-0.8c0.42,0.38,0.67,1.44,0.57,1.53
			C25.53,61.14,24.49,60.55,24.31,60.28z"/>
		<path class="st9" d="M27.74,56.8c-0.41-0.6,0.3-1.23,0.78-0.8c0.42,0.38,0.67,1.44,0.57,1.54C28.96,57.67,27.93,57.07,27.74,56.8z
			"/>
		<path class="st9" d="M30.82,53.69c-0.41-0.6,0.3-1.24,0.78-0.8c0.42,0.38,0.67,1.44,0.57,1.54C32.04,54.56,31,53.96,30.82,53.69z"
			/>
		<path class="st9" d="M33.96,50.51c-0.41-0.6,0.3-1.24,0.78-0.8c0.42,0.38,0.67,1.44,0.57,1.54
			C35.18,51.38,34.14,50.78,33.96,50.51z"/>
		<path class="st9" d="M37.09,47.34c-0.41-0.6,0.3-1.24,0.78-0.8c0.42,0.38,0.67,1.44,0.57,1.53
			C38.31,48.21,37.27,47.61,37.09,47.34z"/>
		<path class="st9" d="M40.53,43.86c-0.41-0.6,0.3-1.23,0.78-0.8c0.42,0.38,0.67,1.44,0.57,1.53
			C41.75,44.72,40.71,44.13,40.53,43.86z"/>
		<path class="st9" d="M43.93,40.42c-0.41-0.6,0.3-1.24,0.78-0.8c0.42,0.38,0.67,1.44,0.57,1.54
			C45.15,41.28,44.11,40.69,43.93,40.42z"/>
		<path class="st9" d="M47.62,36.68c-0.41-0.6,0.3-1.23,0.78-0.79c0.42,0.38,0.67,1.43,0.57,1.53
			C48.84,37.54,47.81,36.95,47.62,36.68z"/>
	</g>
	<path class="st9" d="M19.04,57.54c-0.41-0.6,0.3-1.24,0.78-0.8c0.42,0.38,0.67,1.44,0.57,1.54C20.26,58.41,19.22,57.81,19.04,57.54
		z"/>
	<path class="st8" d="M15.44,60.81c-0.41-0.6,0.3-1.24,0.78-0.8c0.42,0.38,0.67,1.44,0.57,1.54C16.66,61.68,15.63,61.08,15.44,60.81
		z"/>
	<path class="st9" d="M22.66,53.87c-0.41-0.6,0.3-1.23,0.78-0.8c0.42,0.38,0.67,1.44,0.57,1.54C23.88,54.74,22.85,54.14,22.66,53.87
		z"/>
	<path class="st9" d="M26.1,50.4c-0.41-0.6,0.3-1.24,0.78-0.8c0.42,0.38,0.67,1.44,0.57,1.54C27.32,51.26,26.28,50.67,26.1,50.4z"/>
	<path class="st9" d="M29.17,47.29c-0.41-0.6,0.3-1.23,0.78-0.8c0.42,0.38,0.67,1.44,0.57,1.54C30.39,48.15,29.35,47.56,29.17,47.29
		z"/>
	<path class="st9" d="M32.31,44.11c-0.41-0.6,0.3-1.24,0.78-0.8c0.42,0.38,0.67,1.44,0.57,1.53C33.53,44.97,32.5,44.38,32.31,44.11z
		"/>
	<path class="st9" d="M35.44,40.94c-0.41-0.6,0.3-1.23,0.78-0.8c0.42,0.38,0.67,1.44,0.57,1.54C36.66,41.8,35.63,41.21,35.44,40.94z
		"/>
	<path class="st9" d="M38.88,37.45c-0.41-0.6,0.3-1.24,0.78-0.8c0.42,0.38,0.67,1.44,0.57,1.53C40.1,38.32,39.07,37.72,38.88,37.45z
		"/>
	<path class="st9" d="M42.28,34.01c-0.41-0.6,0.3-1.24,0.78-0.8c0.42,0.38,0.67,1.44,0.57,1.54C43.5,34.88,42.47,34.28,42.28,34.01z
		"/>
	<path class="st9" d="M45.49,30.57c-0.41-0.59,0.3-1.23,0.78-0.79c0.42,0.38,0.67,1.43,0.57,1.53
		C46.71,31.43,45.68,30.84,45.49,30.57z"/>
</g>
</svg>
